<?xml version="1.0" encoding="UTF-8"?>
<svg width="44px" height="44px" viewBox="0 0 44 44" version="1.1" xmlns="http://www.w3.org/2000/svg" xmlns:xlink="http://www.w3.org/1999/xlink">
    <!-- Generator: Sketch 50.2 (55047) - http://www.bohemiancoding.com/sketch -->
    <title>cacheIcon-light</title>
    <desc>Created with Sketch.</desc>
    <defs>
        <linearGradient x1="50%" y1="0%" x2="50%" y2="100%" id="linearGradient-1">
            <stop stop-color="#ACE8EE" offset="0%"></stop>
            <stop stop-color="#74CDD9" offset="100%"></stop>
        </linearGradient>
        <linearGradient x1="100%" y1="39.1686893%" x2="13.5058443%" y2="55.376647%" id="linearGradient-2">
            <stop stop-color="#ADE8EE" offset="0%"></stop>
            <stop stop-color="#74CDD9" offset="100%"></stop>
        </linearGradient>
    </defs>
    <g id="Symbols" stroke="none" stroke-width="1" fill="none" fill-rule="evenodd">
        <g id="Top-Nav---Cache-Wallet" transform="translate(-41.000000, -8.000000)">
            <g id="Top-Nav">
                <g id="Group" transform="translate(41.000000, 8.000000)">
                    <g id="cacheIcon-light">
                        <g id="cacheIcon">
                            <circle id="Oval" fill="#F5F7FF" cx="21.9648" cy="21.9648" r="21.9648"></circle>
                            <path d="M43.9296,21.9648 C43.9296,9.83397593 34.0956241,0 21.9648,0 C9.83397593,0 0,9.83397593 0,21.9648 C0,34.0956241 43.9296,34.0956241 43.9296,21.9648 Z" id="Oval" fill="#FFFFFF"></path>
                            <g id="Group" transform="translate(8.193900, 8.065200)">
                                <path d="M7.2072,20.9748698 C8.38707783,21.6432363 9.7502718,22.025167 11.2010707,22.025167 C13.4881497,22.025167 15.6574786,21.0581788 17.1837075,19.3908 L22.2651,22.3279161 C14.2911729,22.8234826 9.27187291,22.3724671 7.2072,20.9748698 Z" id="Combined-Shape" fill="#3C7595"></path>
                                <path d="M9.9099,20.9748698 C11.0897778,21.6432363 12.4529718,22.025167 13.9037707,22.025167 C16.1908497,22.025167 18.3601786,21.0581788 19.8864075,19.3908 L24.9678,22.3279161 C16.9938729,22.8234826 11.9745729,22.3724671 9.9099,20.9748698 Z" id="Combined-Shape" fill="url(#linearGradient-1)"></path>
                                <path d="M13.9077209,0 C18.2901017,0 22.3419933,2.03468443 24.9678,5.49682056 L19.8882217,8.44235581 C18.3625377,6.77019872 16.1939833,5.8004375 13.9077209,5.8004375 C9.43479503,5.8004375 5.7948837,9.4438373 5.7948837,13.92105 C5.7948837,16.9465918 7.55883233,19.3881112 9.91527612,20.9883547 C11.9792119,22.3899582 16.9967198,22.8422664 24.9678,22.3452794 C24.0677867,23.5319504 23.0002338,24.550921 21.8092584,25.3777395 C19.5255394,26.9631803 16.7880106,27.8421 13.9077209,27.8421 C6.23855507,27.8421 0,21.5975671 0,13.92105 C0,6.24453408 6.23855507,0 13.9077209,0 Z" id="Path" fill="#3C7595"></path>
                                <path d="M13.9077209,0 C18.2901017,0 22.3419933,2.03154932 24.9678,5.48835088 L19.8882217,8.42934756 C18.3625377,6.75976699 16.1939833,5.7915 13.9077209,5.7915 C3.73221419,5.48835088 0.586630389,13.1942126 0,13.8996 C0,6.2349123 6.23855507,0 13.9077209,0 Z" id="Path" fill="url(#linearGradient-2)"></path>
                            </g>
                        </g>
                    </g>
                </g>
            </g>
        </g>
    </g>
</svg>